<mxfile host="app.diagrams.net" modified="2024-03-25T19:19:28.508Z" agent="Mozilla/5.0 (Windows NT 10.0; Win64; x64) AppleWebKit/537.36 (KHTML, like Gecko) Chrome/122.0.0.0 Safari/537.36" version="24.1.0" etag="Ro895eSDnUAqw3uwJ9qi" type="github">
  <diagram name="Page-1" id="fXy_dkRvK47TNVks9-3I">
    <mxGraphModel>
      <root>
        <mxCell id="0" />
        <mxCell id="1" parent="0" />
      </root>
    </mxGraphModel>
  </diagram>
</mxfile>
